<svg width="34" height="42" viewBox="0 0 34 42" fill="none" xmlns="http://www.w3.org/2000/svg">
<path d="M16.2135 1.00168C16.6139 0.491775 17.3861 0.491774 17.7865 1.00168L30.4523 17.1324C30.9675 17.7886 30.5001 18.75 29.6658 18.75H4.33419C3.49991 18.75 3.03245 17.7886 3.54768 17.1324L16.2135 1.00168Z" fill="#D9D9D9"/>
<path d="M16.2135 1.00169C16.6139 0.491787 17.3861 0.491785 17.7865 1.00169L30.4523 17.1324C30.9676 17.7886 30.5001 18.75 29.6658 18.75H4.3342C3.49991 18.75 3.03245 17.7886 3.54768 17.1324L16.2135 1.00169Z" fill="#D9D9D9"/>
<path d="M17.7865 40.7483C17.3861 41.2582 16.6139 41.2582 16.2135 40.7483L3.54769 24.6176C3.03246 23.9614 3.49992 23 4.3342 23L29.6658 23C30.5001 23 30.9676 23.9614 30.4523 24.6176L17.7865 40.7483Z" fill="#292929"/>
</svg>
